<svg viewBox="0 0 100000 100000" xmlns="http://www.w3.org/2000/svg">
<path d="M 97889 50122 L 97889 51343 L 98146 51343 L 98146 52576 L 98367 52576 L 98367 53777 L 97984 53777 L 97984 54997 L 97927 54997 L 97927 56197 L 97692 56197 L 97692 57414 L 97589 57414 L 97589 58568 L 97111 58568 L 97111 59695 L 96575 59695 L 96575 61078 L 97193 61078 L 97193 62252 L 96830 62252 L 96830 63394 L 96362 63394 L 96362 64459 L 95677 64459 L 95677 65749 L 95695 65749 L 95695 66945 L 95398 66945 L 95398 68048 L 94849 68048 L 94849 69188 L 94400 69188 L 94400 70211 L 93694 70211 L 93694 71118 L 92776 71118 L 92776 72159 L 92158 72159 L 92158 73377 L 91866 73377 L 91866 74338 L 91105 74338 L 91105 75674 L 90958 75674 L 90958 76256 L 89619 76256 L 89619 77770 L 89682 77770 L 89682 78327 L 88370 78327 L 88370 79379 L 87755 79379 L 87755 80724 L 87484 80724 L 87484 81677 L 86710 81677 L 86710 81954 L 85188 81954 L 85188 82868 L 84401 82868 L 84401 84052 L 83879 84052 L 83879 85208 L 83297 85208 L 83297 85979 L 82340 85979 L 82340 86685 L 81330 86685 L 81330 87476 L 80399 87476 L 80399 87766 L 79079 87766 L 79079 88540 L 78149 88540 L 78149 89761 L 77524 89761 L 77524 89929 L 76169 89929 L 76169 91118 L 75483 91118 L 75483 91611 L 74352 91611 L 74352 92266 L 73318 92266 L 73318 92943 L 72292 92943 L 72292 93045 L 70978 93045 L 70978 93860 L 70017 93860 L 70017 93783 L 68656 93783 L 68656 94398 L 67603 94398 L 67603 94981 L 66528 94981 L 66528 94995 L 65251 94995 L 65251 95931 L 64282 95931 L 64282 95925 L 63014 95925 L 63014 96177 L 61830 96177 L 61830 97018 L 60784 97018 L 60784 96767 L 59486 96767 L 59486 97572 L 58401 97572 L 58401 97506 L 57153 97506 L 57153 97261 L 55896 97261 L 55896 98258 L 54782 98258 L 54782 97639 L 53505 97639 L 53505 98352 L 52328 98352 L 52328 98022 L 51094 98022 L 51094 97626 L 49878 97626 L 49878 97775 L 48667 97775 L 48667 98335 L 47424 98335 L 47424 97940 L 46226 97940 L 46226 97568 L 45040 97568 L 45040 97160 L 43871 97160 L 43871 97697 L 42568 97697 L 42568 97659 L 41332 97659 L 41332 97463 L 40119 97463 L 40119 96254 L 39141 96254 L 39141 96436 L 37850 96436 L 37850 96204 L 36651 96204 L 36651 95690 L 35536 95690 L 35536 95091 L 34458 95091 L 34458 94895 L 33241 94895 L 33241 94917 L 31924 94917 L 31924 93701 L 31113 93701 L 31113 93770 L 29753 93770 L 29753 92918 L 28811 92918 L 28811 92566 L 27626 92566 L 27626 91928 L 26587 91928 L 26587 91228 L 25588 91228 L 25588 90693 L 24491 90693 L 24491 89918 L 23545 89918 L 23545 89083 L 22648 89083 L 22648 88569 L 21526 88569 L 21526 88006 L 20425 88006 L 20425 87027 L 19650 87027 L 19650 86408 L 18582 86408 L 18582 85794 L 17494 85794 L 17494 84853 L 16699 84853 L 16699 83608 L 16219 83608 L 16219 83130 L 14968 83130 L 14968 82233 L 14139 82233 L 14139 81322 L 13324 81322 L 13324 80393 L 12530 80393 L 12530 79188 L 12092 79188 L 12092 78441 L 11060 78441 L 11060 77294 L 10569 77294 L 10569 76295 L 9877 76295 L 9877 75414 L 8993 75414 L 8993 74079 L 8854 74079 L 8854 73048 L 8223 73048 L 8223 72018 L 7584 72018 L 7584 71096 L 6713 71096 L 6713 69846 L 6512 69846 L 6512 68889 L 5670 68889 L 5670 67688 L 5388 67688 L 5388 66653 L 4679 66653 L 4679 65538 L 4158 65538 L 4158 64351 L 3847 64351 L 3847 63053 L 3935 63053 L 3935 61854 L 3727 61854 L 3727 60649 L 3568 60649 L 3568 59540 L 2966 59540 L 2966 58277 L 3127 58277 L 3127 57220 L 2047 57220 L 2047 55950 L 2308 55950 L 2308 54721 L 2365 54721 L 2365 53545 L 1816 53545 L 1816 52293 L 2366 52293 L 2366 51083 L 2456 51083 L 2456 50114 L 94985 50114 L 94985 48652 L 1712 48652 L 1712 47430 L 1766 47430 L 1766 46194 L 1659 46194 L 1659 45009 L 2134 45009 L 2134 43813 L 2392 43813 L 2392 42665 L 2924 42665 L 2924 41407 L 2753 41407 L 2753 40316 L 3480 40316 L 3480 39024 L 3244 39024 L 3244 37962 L 3991 37962 L 3991 36578 L 3541 36578 L 3541 35369 L 3781 35369 L 3781 34314 L 4491 34314 L 4491 33362 L 5428 33362 L 5428 32007 L 5289 32007 L 5289 30766 L 5494 30766 L 5494 29838 L 6414 29838 L 6414 28888 L 7237 28888 L 7237 27885 L 7926 27885 L 7926 26743 L 8350 26743 L 8350 25725 L 9002 25725 L 9002 24637 L 9540 24637 L 9540 23557 L 10100 23557 L 10100 22525 L 10740 22525 L 10740 21683 L 11643 21683 L 11643 20616 L 12238 20616 L 12238 19509 L 12800 19509 L 12800 18659 L 13680 18659 L 13680 17783 L 14524 17783 L 14524 17136 L 15603 17136 L 15603 16321 L 16493 16321 L 16493 15293 L 17177 15293 L 17177 14197 L 17819 14197 L 17819 13493 L 18821 13493 L 18821 12696 L 19741 12696 L 19741 11736 L 20537 11736 L 20537 11374 L 21788 11374 L 21788 10720 L 22808 10720 L 22808 9612 L 23529 9612 L 23529 8836 L 24488 8836 L 24488 8393 L 25650 8393 L 25650 7914 L 26781 7914 L 26781 7070 L 27714 7070 L 27714 6825 L 28958 6825 L 28958 6783 L 30276 6783 L 30276 5683 L 31115 5683 L 31115 5328 L 32288 5328 L 32288 5292 L 33571 5292 L 33571 4161 L 34462 4161 L 34462 4200 L 35758 4200 L 35758 3598 L 36850 3598 L 36850 3109 L 37986 3109 L 37986 3142 L 39252 3142 L 39252 2607 L 40386 2607 L 40386 2924 L 41686 2924 L 41686 2163 L 42796 2163 L 42796 1994 L 44010 1994 L 44010 1849 L 45227 1849 L 45227 2490 L 46504 2490 L 46504 2027 L 47689 2027 L 47689 2054 L 48907 2054 L 48907 2180 L 50122 2180 L 50122 2399 L 51327 2399 L 51327 1739 L 52571 1739 L 52571 1745 L 53798 1745 L 53798 2535 L 54949 2535 L 54949 2091 L 56225 2091 L 56225 2800 L 57354 2800 L 57354 2944 L 58557 2944 L 58557 3225 L 59737 3225 L 59737 2976 L 61038 2976 L 61038 3118 L 62266 3118 L 62266 3460 L 63445 3460 L 63445 4712 L 64336 4712 L 64336 4317 L 65745 4317 L 65745 5024 L 66787 5024 L 66787 5527 L 67896 5527 L 67896 5483 L 69238 5483 L 69238 5983 L 70360 5983 L 70360 6842 L 71306 6842 L 71306 7635 L 72267 7635 L 72267 7748 L 73592 7748 L 73592 8640 L 74489 8640 L 74489 9690 L 75268 9690 L 75268 10087 L 76450 10087 L 76450 10530 L 77621 10530 L 77621 11571 L 78370 11571 L 78370 11969 L 79593 11969 L 79593 12575 L 80674 12575 L 80674 13805 L 81232 13805 L 81232 14395 L 82332 14395 L 82332 15642 L 82826 15642 L 82826 16021 L 84152 16021 L 84152 17279 L 84598 17279 L 84598 17992 L 85609 17992 L 85609 18752 L 86587 18752 L 86587 19632 L 87436 19632 L 87436 20928 L 87756 20928 L 87756 21654 L 88809 21654 L 88809 22610 L 89567 22610 L 89567 23531 L 90385 23531 L 90385 24841 L 90593 24841 L 90593 25959 L 91077 25959 L 91077 26938 L 91800 26938 L 91800 27665 L 93024 27665 L 93024 28847 L 93402 28847 L 93402 30247 L 93281 30247 L 93281 31365 L 93731 31365 L 93731 32367 L 94471 32367 L 94471 33542 L 94786 33542 L 94786 34491 L 95753 34491 L 95753 35883 L 95397 35883 L 95397 36980 L 95942 36980 L 95942 38154 L 96235 38154 L 96235 39308 L 96613 39308 L 96613 40514 L 96761 40514 L 96761 41686 L 97077 41686 L 97077 42904 L 97119 42904 L 97119 44020 L 97923 44020 L 97923 45256 L 97858 45256 L 97858 46487 L 97727 46487 L 97727 47671 L 98359 47671 L 98359 48896 L 98432 48896 L 98432 50122 z" />
</svg>
