<?xml version="1.0" encoding="UTF-8" standalone="no"?>
<!-- Created with Inkscape (http://www.inkscape.org/) -->

<svg
   width="100000"
   height="100000"
   viewBox="0 0 100000 100000"
   version="1.1"
   id="svg1138"
   inkscape:version="1.1.1 (3bf5ae0d25, 2021-09-20)"
   sodipodi:docname="input09.inkscape.svg"
   xmlns:inkscape="http://www.inkscape.org/namespaces/inkscape"
   xmlns:sodipodi="http://sodipodi.sourceforge.net/DTD/sodipodi-0.dtd"
   xmlns="http://www.w3.org/2000/svg"
   xmlns:svg="http://www.w3.org/2000/svg">
  <sodipodi:namedview
     id="namedview1140"
     pagecolor="#7b7b7b"
     bordercolor="#eeeeee"
     borderopacity="1"
     inkscape:pageshadow="0"
     inkscape:pageopacity="0"
     inkscape:pagecheckerboard="true"
     inkscape:document-units="px"
     showgrid="false"
     units="px"
     width="80px"
     inkscape:zoom="0.01"
     inkscape:cx="56050"
     inkscape:cy="48050"
     inkscape:window-width="2560"
     inkscape:window-height="1369"
     inkscape:window-x="2552"
     inkscape:window-y="-8"
     inkscape:window-maximized="1"
     inkscape:current-layer="layer1" />
  <defs
     id="defs1135" />
  <g
     inkscape:label="Layer 1"
     inkscape:groupmode="layer"
     id="layer1">
    <path
       d="m 97843.5,50076.5 v 1221 h 257 v 1233 h 221 v 1201 h -383 v 1220 h -57 v 1200 h -235 v 1217 h -103 v 1154 h -478 v 1127 h -536 v 1383 h 618 v 1174 h -363 v 1142 h -468 v 1065 h -685 v 1290 h 18 v 1196 h -297 v 1103 h -549 v 1140 h -449 v 1023 h -706 v 907 h -918 v 1041 h -618 v 1218 h -292 v 961 h -761 v 1336 h -147 v 582 h -1339 v 1514 h 63 v 557 h -1312 v 1052 h -615 v 1345 h -271 v 953 h -774 v 277 h -1522 v 914 h -787 v 1184 h -522 v 1156 h -582 v 771 h -957 v 706 h -1010 v 791 h -931 v 290 h -1320 v 774 h -930 v 1221 h -625 v 168 h -1355 v 1189 h -686 v 493 h -1131 v 655 h -1034 v 677 h -1026 v 102 h -1314 v 815 h -961 v -77 h -1361 v 615 h -1053 v 583 h -1075 v 14 h -1277 v 936 h -969 v -6 h -1268 v 252 h -1184 v 841 h -1046 v -251 h -1298 v 805 h -1085 v -66 h -1248 v -245 h -1257 v 997 h -1114 v -619 h -1277 v 713 h -1177 v -330 h -1234 v -396 h -1216 v 149 h -1211 v 560 h -1243 v -395 h -1198 v -372 h -1186 v -408 h -1169 v 537 h -1303 v -38 h -1236 v -196 h -1213 v -1209 h -978 v 182 h -1291 v -232 h -1199 v -514 h -1115 v -599 h -1078 v -196 h -1217 v 22 h -1317 v -1216 h -811 v 69 h -1360 v -852 h -942 v -352 h -1185 v -638 h -1039 v -700 h -999 v -535 h -1097 v -775 h -946 v -835 h -897 v -514 h -1122 v -563 h -1101 v -979 h -775 v -619 h -1068 v -614 h -1088 v -941 h -795 v -1245 h -480 v -478 h -1251 v -897 h -829 v -911 h -815 v -929 h -794 v -1205 h -438 v -747 h -1032 v -1147 h -491 v -999 h -692 v -881 h -884 v -1335 h -139 v -1031 h -631 v -1030 h -639 v -922 h -871 v -1250 h -201 v -957 h -842 v -1201 h -282 v -1035 h -709 v -1115 h -521 v -1187 h -311 v -1298 h 88 v -1199 h -208 v -1205 h -159 v -1109 h -602 v -1263 h 161 v -1057 h -1080 v -1270 h 261 v -1229 h 57 v -1176 h -549 v -1252 h 550 v -1210 h 90 v -969 h 92529 v -1462 h -93273 v -1222 h 54 v -1236 h -107 v -1185 h 475 v -1196 h 258 v -1148 h 532 v -1258 h -171 v -1091 h 727 v -1292 h -236 v -1062 h 747 v -1384 h -450 v -1209 h 240 v -1055 h 710 v -952 h 937 v -1355 h -139 v -1241 h 205 v -928 h 920 v -950 h 823 v -1003 h 689 v -1142 h 424 v -1018 h 652 v -1088 h 538 v -1080 h 560 v -1032 h 640 v -842 h 903 v -1067 h 595 v -1107 h 562 v -850 h 880 v -876 h 844 v -647 h 1079 v -815 h 890 v -1028 h 684 v -1096 h 642 v -704 h 1002 v -797 h 920 v -960 h 796 v -362 h 1251 v -654 h 1020 v -1108 h 721 v -776 h 959 v -443 h 1162 v -479 h 1131 v -844 h 933 v -245 h 1244 v -42 h 1318 v -1100 h 839 v -355 h 1173 v -36 h 1283 v -1131 h 891 v 39 h 1296 v -602 h 1092 v -489 h 1136 v 33 h 1266 v -535 h 1134 v 317 h 1300 v -761 h 1110 v -169 h 1214 v -145 h 1217 v 641 h 1277 v -463 h 1185 v 27 h 1218 v 126 h 1215 v 219 h 1205 v -660 h 1244 v 6 h 1227 v 790 h 1151 v -444 h 1276 v 709 h 1129 v 144 h 1203 v 281 h 1180 v -249 h 1301 v 142 h 1228 v 342 h 1179 v 1252 h 891 v -395 h 1409 v 707 h 1042 v 503 h 1109 v -44 h 1342 v 500 h 1122 v 859 h 946 v 793 h 961 v 113 h 1325 v 892 h 897 v 1050 h 779 v 397 h 1182 v 443 h 1171 v 1041 h 749 v 398 h 1223 v 606 h 1081 v 1230 h 558 v 590 h 1100 v 1247 h 494 v 379 h 1326 v 1258 h 446 v 713 h 1011 v 760 h 978 v 880 h 849 v 1296 h 320 v 726 h 1053 v 956 h 758 v 921 h 818 v 1310 h 208 v 1118 h 484 v 979 h 723 v 727 h 1224 v 1182 h 378 v 1400 h -121 v 1118 h 450 v 1002 h 740 v 1175 h 315 v 949 h 967 v 1392 h -356 v 1097 h 545 v 1174 h 293 v 1154 h 378 v 1206 h 148 v 1172 h 316 v 1218 h 42 v 1116 h 804 v 1236 h -65 v 1231 h -131 v 1184 h 632 v 1225 h 73 v 1226 z"
       id="path821" />
  </g>
</svg>
