<svg viewBox="0 0 100000 100000" xmlns="http://www.w3.org/2000/svg"><path d="M 98302 50003 L 98302 51224 L 98168 51224 L 98168 52447 L 98186 52447 L 98186 53636 L 97714 53636 L 97714 54871 L 97875 54871 L 97875 56010 L 97164 56010 L 97164 57213 L 97068 57213 L 97068 58476 L 97274 58476 L 97274 59728 L 97321 59728 L 97321 60896 L 96940 60896 L 96940 62063 L 96580 62063 L 96580 63178 L 96044 63178 L 96044 64395 L 95871 64395 L 95871 65536 L 95443 65536 L 95443 66593 L 94793 66593 L 94793 67818 L 94599 67818 L 94599 68765 L 93720 68765 L 93720 69885 L 93270 69885 L 93270 70946 L 92694 70946 L 92694 72389 L 92855 72389 L 92855 73409 L 92168 73409 L 92168 74440 L 91512 74440 L 91512 75135 L 90319 75135 L 90319 76590 L 90340 76590 L 90340 77609 L 89661 77609 L 89661 78603 L 88946 78603 L 88946 79150 L 87653 79150 L 87653 80056 L 86856 80056 L 86856 80969 L 86069 80969 L 86069 82283 L 85727 82283 L 85727 82920 L 84627 82920 L 84627 83969 L 83964 83969 L 83964 84620 L 82904 84620 L 82904 85831 L 82367 85831 L 82367 86713 L 81513 86713 L 81513 87151 L 80288 87151 L 80288 87866 L 79306 87866 L 79306 88852 L 78525 88852 L 78525 89142 L 77239 89142 L 77239 89703 L 76163 89703 L 76163 90454 L 75211 90454 L 75211 91706 L 74547 91706 L 74547 92126 L 73378 92126 L 73378 92726 L 72314 92726 L 72314 93055 L 71115 93055 L 71115 93445 L 69958 93445 L 69958 93971 L 68866 93971 L 68866 94264 L 67677 94264 L 67677 95294 L 66771 95294 L 66771 95514 L 65553 95514 L 65553 96011 L 64432 96011 L 64432 96160 L 63204 96160 L 63204 96700 L 62088 96700 L 62088 97050 L 60914 97050 L 60914 96668 L 59587 96668 L 59587 97561 L 58520 97561 L 58520 97113 L 57214 97113 L 57214 97472 L 56042 97472 L 56042 97372 L 54813 97372 L 54813 98058 L 53656 98058 L 53656 97675 L 52414 97675 L 52414 98174 L 51217 98174 L 51217 97538 L 49996 97538 L 49996 97777 L 48785 97777 L 48785 97710 L 47577 97710 L 47577 97588 L 46372 97588 L 46372 98126 L 45102 98126 L 45102 97628 L 43930 97628 L 43930 97893 L 42659 97893 L 42659 96979 L 41576 96979 L 41576 97336 L 40268 97336 L 40268 96764 L 39144 96764 L 39144 96153 L 38046 96153 L 38046 96044 L 36821 96044 L 36821 96133 L 35522 96133 L 35522 95129 L 34570 95129 L 34570 94715 L 33435 94715 L 33435 94476 L 32230 94476 L 32230 94173 L 31039 94173 L 31039 93855 L 29845 93855 L 29845 93309 L 28751 93309 L 28751 92364 L 27866 92364 L 27866 91768 L 26813 91768 L 26813 90974 L 25875 90974 L 25875 90656 L 24654 90656 L 24654 90390 L 23376 90390 L 23376 89775 L 22311 89775 L 22311 88714 L 21567 88714 L 21567 88174 L 20446 88174 L 20446 87381 L 19515 87381 L 19515 86667 L 18517 86667 L 18517 85391 L 18020 85391 L 18020 84587 L 17117 84587 L 17117 84173 L 15821 84173 L 15821 83232 L 15034 83232 L 15034 82204 L 14349 82204 L 14349 81581 L 13206 81581 L 13206 80333 L 12794 80333 L 12794 79174 L 12304 79174 L 12304 78538 L 11129 78538 L 11129 77208 L 10902 77208 L 10902 76567 L 9682 76567 L 9682 75520 L 9049 75520 L 9049 74331 L 8659 74331 L 8659 73210 L 8176 73210 L 8176 72066 L 7748 72066 L 7748 71330 L 6507 71330 L 6507 70084 L 6280 70084 L 6280 68785 L 6215 68785 L 6215 67814 L 5393 67814 L 5393 66621 L 5112 66621 L 5112 65682 L 4109 65682 L 4109 64454 L 3918 64454 L 3918 63076 L 4289 63076 L 4289 62035 L 3502 62035 L 3502 60858 L 3190 60858 L 3190 59573 L 3400 59573 L 3400 58531 L 2382 58531 L 2382 57313 L 2238 57313 L 2238 56105 L 2034 56105 L 2034 54836 L 2406 54836 L 2406 53666 L 1803 53666 L 1803 52448 L 1646 52448 L 1646 51221 L 1674 51221 L 1674 50003 L 94601 50003 L 94601 48785 L 2222 48785 L 2222 47553 L 1818 47553 L 1818 46337 L 1944 46337 L 1944 45177 L 2609 45177 L 2609 43968 L 2666 43968 L 2666 42764 L 2790 42764 L 2790 41575 L 3015 41575 L 3015 40249 L 2568 40249 L 2568 39132 L 3184 39132 L 3184 37906 L 3307 37906 L 3307 36927 L 4324 36927 L 4324 35567 L 4011 35567 L 4011 34363 L 4265 34363 L 4265 33197 L 4640 33197 L 4640 32194 L 5435 32194 L 5435 31142 L 6065 31142 L 6065 30099 L 6695 30099 L 6695 28705 L 6596 28705 L 6596 27761 L 7433 27761 L 7433 26844 L 8288 26844 L 8288 25449 L 8300 25449 L 8300 24396 L 8928 24396 L 8928 23840 L 10314 23840 L 10314 22721 L 10814 22721 L 10814 21729 L 11506 21729 L 11506 20366 L 11722 20366 L 11722 19560 L 12674 19560 L 12674 18574 L 13398 18574 L 13398 17557 L 14096 17557 L 14096 17268 L 15571 17268 L 15571 15972 L 15976 15972 L 15976 15218 L 16942 15218 L 16942 14403 L 17844 14403 L 17844 13244 L 18451 13244 L 18451 13003 L 19837 13003 L 19837 12032 L 20615 12032 L 20615 11292 L 21581 11292 L 21581 10689 L 22643 10689 L 22643 10214 L 23783 10214 L 23783 9256 L 24608 9256 L 24608 8332 L 25475 8332 L 25475 7886 L 26628 7886 L 26628 7649 L 27881 7649 L 27881 7321 L 29068 7321 L 29068 6086 L 29826 6086 L 29826 6310 L 31254 6310 L 31254 5316 L 32154 5316 L 32154 4703 L 33227 4703 L 33227 4507 L 34453 4507 L 34453 4398 L 35695 4398 L 35695 3408 L 36672 3408 L 36672 3522 L 37969 3522 L 37969 3685 L 39256 3685 L 39256 3353 L 40417 3353 L 40417 2886 L 41559 2886 L 41559 2933 L 42793 2933 L 42793 2141 L 43908 2141 L 43908 2680 L 45191 2680 L 45191 2586 L 46392 2586 L 46392 2000 L 47569 2000 L 47569 2086 L 48789 2086 L 48789 1768 L 50003 1768 L 50003 2094 L 51217 2094 L 51217 1726 L 52451 1726 L 52451 2521 L 53618 2521 L 53618 2184 L 54865 2184 L 54865 2001 L 56116 2001 L 56116 2192 L 57327 2192 L 57327 2984 L 58430 2984 L 58430 2640 L 59735 2640 L 59735 3676 L 60752 3676 L 60752 3891 L 61941 3891 L 61941 4311 L 63076 4311 L 63076 4651 L 64231 4651 L 64231 4383 L 65595 4383 L 65595 4870 L 66717 4870 L 66717 5195 L 67900 5195 L 67900 6130 L 68829 6130 L 68829 6542 L 69971 6542 L 69971 6459 L 71361 6459 L 71361 7583 L 72160 7583 L 72160 7855 L 73395 7855 L 73395 8368 L 74511 8368 L 74511 9474 L 75263 9474 L 75263 9687 L 76572 9687 L 76572 10635 L 77402 10635 L 77402 11650 L 78164 11650 L 78164 11759 L 79604 11759 L 79604 12930 L 80230 12930 L 80230 13733 L 81138 13733 L 81138 14741 L 81859 14741 L 81859 15311 L 82978 15311 L 82978 16332 L 83672 16332 L 83672 17169 L 84542 17169 L 84542 17714 L 85740 17714 L 85740 18612 L 86566 18612 L 86566 19436 L 87488 19436 L 87488 20859 L 87651 20859 L 87651 21393 L 88962 21393 L 88962 22570 L 89415 22570 L 89415 23635 L 90009 23635 L 90009 24534 L 90862 24534 L 90862 25593 L 91467 25593 L 91467 26849 L 91716 26849 L 91716 27581 L 92925 27581 L 92925 28721 L 93386 28721 L 93386 29770 L 94036 29770 L 94036 31222 L 93764 31222 L 93764 32377 L 94126 32377 L 94126 33274 L 95169 33274 L 95169 34393 L 95668 34393 L 95668 35730 L 95490 35730 L 95490 36882 L 95855 36882 L 95855 38072 L 96081 38072 L 96081 39252 L 96327 39252 L 96327 40429 L 96585 40429 L 96585 41595 L 96912 41595 L 96912 42771 L 97206 42771 L 97206 43958 L 97461 43958 L 97461 45166 L 97568 45166 L 97568 46336 L 98146 46336 L 98146 47589 L 97604 47589 L 97604 48791 L 97828 48791 L 97828 50003 Z" /></svg>